<svg width="48" height="48" viewBox="0 0 48 48" fill="none" xmlns="http://www.w3.org/2000/svg">
  <!-- Simple DD design -->
  <rect width="48" height="48" rx="8" fill="#3B82F6"/>
  
  <!-- First D -->
  <path d="M8 12C8 10.8954 8.89543 10 10 10H18C23.5228 10 28 14.4772 28 20V28C28 33.5228 23.5228 38 18 38H10C8.89543 38 8 37.1046 8 36V12Z" fill="white"/>
  <path d="M12 16C12 15.4477 12.4477 15 13 15H17C19.7614 15 22 17.2386 22 20V28C22 30.7614 19.7614 33 17 33H13C12.4477 33 12 32.5523 12 32V16Z" fill="#3B82F6"/>
  
  <!-- Second D -->
  <path d="M20 12C20 10.8954 20.8954 10 22 10H30C35.5228 10 40 14.4772 40 20V28C40 33.5228 35.5228 38 30 38H22C20.8954 38 20 37.1046 20 36V12Z" fill="white"/>
  <path d="M24 16C24 15.4477 24.4477 15 25 15H29C31.7614 15 34 17.2386 34 20V28C34 30.7614 31.7614 33 29 33H25C24.4477 33 24 32.5523 24 32V16Z" fill="#3B82F6"/>
</svg>
